<svg width="24" height="24" viewBox="0 0 24 24" fill="none" xmlns="http://www.w3.org/2000/svg">
<g clip-path="url(#clip0_1153_114)">
<path d="M0.937971 12.9375L20.7923 12.9375L17.5033 16.2105C17.1363 16.5758 17.1349 17.1693 17.5002 17.5363C17.8654 17.9033 18.459 17.9047 18.826 17.5395L23.7247 12.6645C23.725 12.6642 23.7252 12.6639 23.7255 12.6636C24.0915 12.2984 24.0927 11.7029 23.7256 11.3364C23.7253 11.3361 23.725 11.3358 23.7248 11.3355L18.8261 6.46052C18.4592 6.09536 17.8656 6.09663 17.5003 6.46371C17.135 6.83069 17.1364 7.42427 17.5034 7.78952L20.7923 11.0625L0.937971 11.0625C0.420191 11.0625 0.000471115 11.4822 0.000471115 12C0.000471115 12.5178 0.420191 12.9375 0.937971 12.9375Z" fill="white"/>
</g>
<defs>
<clipPath id="clip0_1153_114">
<rect width="24" height="24" fill="white" transform="translate(24 24) rotate(-180)"/>
</clipPath>
</defs>
</svg>
