<svg width="30" height="30" viewBox="0 0 32 32" fill="none" xmlns="http://www.w3.org/2000/svg">
<path d="M16 31C7.71053 31 1 24.3071 1 16.0394C1 7.69291 7.71053 1 16 1C24.2895 1 31 7.69291 31 15.9606C31 24.2283 24.2895 31 16 31Z" stroke="#BFBCB5" stroke-width="1.5" stroke-miterlimit="10"/>
<path d="M13.7107 25.0158H17.3422V15.8819H19.9475L20.1843 12.811H17.3422C17.3422 12.811 17.3422 11.6299 17.3422 11.0787C17.3422 10.3701 17.5001 10.0551 18.2107 10.0551C18.7633 10.0551 20.1843 10.0551 20.1843 10.0551V6.90552C20.1843 6.90552 18.1317 6.90552 17.658 6.90552C14.9738 6.90552 13.7107 8.08662 13.7107 10.3701C13.7107 12.3386 13.7107 12.811 13.7107 12.811H11.8159V15.8819H13.7107V25.0158Z" fill="#BFBCB5"/>
</svg>
