<svg width="30" height="30" viewBox="0 0 18 18" fill="none" xmlns="http://www.w3.org/2000/svg">
<path d="M9 2.25721C11.2212 2.25721 11.4591 2.25721 12.3317 2.33654C13.125 2.33654 13.601 2.49519 13.8389 2.65385C14.2356 2.8125 14.4736 2.97115 14.7909 3.28846C15.1082 3.60577 15.2668 3.84375 15.4255 4.24039C15.5048 4.55769 15.6635 4.95433 15.7428 5.7476C15.7428 6.62019 15.8221 6.85817 15.8221 9.07933C15.8221 11.3005 15.8221 11.5385 15.7428 12.4111C15.7428 13.2043 15.5841 13.6803 15.4255 13.9183C15.2668 14.3149 15.1082 14.5529 14.7909 14.8702C14.4736 15.1875 14.2356 15.3462 13.8389 15.5048C13.5216 15.5841 13.125 15.7428 12.3317 15.8221C11.4591 15.9014 11.2212 15.9014 9 15.9014C6.77884 15.9014 6.54086 15.9014 5.66827 15.8221C4.875 15.8221 4.39904 15.6635 4.16106 15.5048C3.76442 15.3462 3.52644 15.1875 3.20913 14.8702C2.89183 14.5529 2.73317 14.3149 2.57452 13.9183C2.49519 13.601 2.33654 13.2043 2.25721 12.4111C2.17788 11.5385 2.17788 11.3005 2.17788 9.07933C2.17788 6.85817 2.17788 6.62019 2.25721 5.7476C2.25721 4.95433 2.41587 4.47837 2.57452 4.24039C2.73317 3.84375 2.89183 3.60577 3.20913 3.28846C3.52644 2.97115 3.76442 2.8125 4.16106 2.65385C4.47836 2.57452 4.875 2.41587 5.66827 2.33654C6.54086 2.25721 6.77884 2.25721 9 2.25721ZM9 0.75C6.77884 0.75 6.46154 0.75 5.58894 0.829327C4.71635 0.908654 4.08173 0.987981 3.60577 1.22596C3.05048 1.46394 2.57452 1.70192 2.17788 2.17788C1.70192 2.65385 1.46394 3.12981 1.22596 3.60577C0.987981 4.16106 0.908654 4.71635 0.829327 5.58894C0.75 6.46154 0.75 6.77885 0.75 9C0.75 11.2212 0.75 11.5385 0.829327 12.4111C0.908654 13.2837 0.987981 13.9183 1.22596 14.3942C1.46394 14.9495 1.70192 15.4255 2.17788 15.8221C2.65385 16.2981 3.12981 16.5361 3.60577 16.774C4.16106 17.012 4.71635 17.0913 5.58894 17.1707C6.46154 17.25 6.77884 17.25 9 17.25C11.2212 17.25 11.5385 17.25 12.4111 17.1707C13.2837 17.0913 13.9183 17.012 14.3942 16.774C14.9495 16.5361 15.4255 16.2981 15.8221 15.8221C16.2981 15.3462 16.5361 14.8702 16.774 14.3942C17.012 13.8389 17.0913 13.2837 17.1707 12.4111C17.25 11.5385 17.25 11.2212 17.25 9C17.25 6.77885 17.25 6.46154 17.1707 5.58894C17.0913 4.71635 17.012 4.08173 16.774 3.60577C16.5361 3.05048 16.2981 2.57452 15.8221 2.17788C15.3462 1.70192 14.8702 1.46394 14.3942 1.22596C13.8389 0.987981 13.2837 0.908654 12.4111 0.829327C11.5385 0.75 11.2212 0.75 9 0.75Z" fill="#BFBCB5"/>
<path d="M8.99996 4.79565C6.62015 4.79565 4.71631 6.6995 4.71631 9.07931C4.71631 11.4591 6.62015 13.363 8.99996 13.363C11.3798 13.363 13.2836 11.4591 13.2836 9.07931C13.2043 6.6995 11.3004 4.79565 8.99996 4.79565ZM8.99996 11.7764C7.49275 11.7764 6.22352 10.5072 6.22352 8.99998C6.22352 7.49277 7.49275 6.22354 8.99996 6.22354C10.5072 6.22354 11.7764 7.49277 11.7764 8.99998C11.7764 10.5865 10.5072 11.7764 8.99996 11.7764Z" fill="#BFBCB5"/>
<path d="M14.3942 4.63721C14.3942 5.19249 13.9183 5.66846 13.363 5.66846C12.8077 5.66846 12.3317 5.19249 12.3317 4.63721C12.3317 4.08192 12.8077 3.60596 13.363 3.60596C13.9183 3.60596 14.3942 4.08192 14.3942 4.63721Z" fill="#BFBCB5"/>
</svg>
