<svg width="30" height="30" viewBox="0 0 42 42" fill="none" xmlns="http://www.w3.org/2000/svg">
<g clip-path="url(#clip0_78_80)">
<path d="M31.8834 26.0599C31.8567 26.0025 31.8319 25.9549 31.8088 25.9168C31.4271 25.2293 30.6977 24.3855 29.621 23.3851L29.5983 23.3622L29.5869 23.351L29.5754 23.3395H29.5638C29.0751 22.8736 28.7657 22.5604 28.6361 22.4001C28.399 22.0946 28.3459 21.7854 28.4755 21.4721C28.567 21.2354 28.9109 20.7355 29.5064 19.9717C29.8196 19.567 30.0677 19.2426 30.2509 18.9981C31.572 17.2417 32.1448 16.1193 31.9691 15.6305L31.9009 15.5163C31.855 15.4475 31.7367 15.3846 31.546 15.3273C31.3548 15.27 31.1105 15.2605 30.8127 15.2987L27.5138 15.3215C27.4604 15.3026 27.3841 15.3043 27.2847 15.3273C27.1854 15.3502 27.1357 15.3617 27.1357 15.3617L27.0783 15.3904L27.0327 15.4249C26.9945 15.4477 26.9525 15.4877 26.9067 15.545C26.8611 15.6021 26.8229 15.6691 26.7924 15.7455C26.4333 16.6695 26.0249 17.5286 25.5666 18.3227C25.2841 18.7962 25.0246 19.2066 24.7876 19.5541C24.5509 19.9014 24.3524 20.1574 24.1921 20.3214C24.0317 20.4856 23.8868 20.6172 23.7568 20.7166C23.6269 20.816 23.5277 20.858 23.4591 20.8426C23.3903 20.8272 23.3255 20.812 23.2642 20.7968C23.1573 20.728 23.0714 20.6345 23.0066 20.5161C22.9415 20.3978 22.8977 20.2488 22.8748 20.0693C22.852 19.8898 22.8385 19.7353 22.8347 19.6054C22.8311 19.4757 22.8328 19.2923 22.8405 19.0556C22.8484 18.8187 22.852 18.6585 22.852 18.5745C22.852 18.2843 22.8577 17.9693 22.869 17.6295C22.8806 17.2896 22.8899 17.0204 22.8977 16.822C22.9055 16.6235 22.9091 16.4134 22.9091 16.192C22.9091 15.9705 22.8957 15.7968 22.869 15.6708C22.8427 15.5449 22.8023 15.4227 22.7491 15.3042C22.6955 15.1858 22.6171 15.0943 22.5142 15.0293C22.4112 14.9644 22.283 14.9129 22.1305 14.8746C21.7258 14.783 21.2103 14.7335 20.584 14.7258C19.1638 14.7105 18.2512 14.8022 17.8464 15.0008C17.6861 15.0847 17.541 15.1993 17.4112 15.3443C17.2737 15.5123 17.2545 15.6041 17.3538 15.6191C17.812 15.6878 18.1365 15.852 18.3274 16.1116L18.3962 16.2492C18.4497 16.3484 18.5031 16.5242 18.5566 16.7761C18.61 17.0281 18.6445 17.3068 18.6597 17.6121C18.6978 18.1696 18.6978 18.6469 18.6597 19.0439C18.6214 19.4411 18.5853 19.7503 18.5508 19.9718C18.5164 20.1932 18.4649 20.3727 18.3962 20.5101C18.3274 20.6476 18.2816 20.7316 18.2587 20.7621C18.2357 20.7925 18.2167 20.8118 18.2015 20.8193C18.1022 20.8573 17.999 20.8767 17.8922 20.8767C17.7852 20.8767 17.6554 20.8232 17.5027 20.7162C17.3501 20.6093 17.1916 20.4624 17.0274 20.2752C16.8632 20.0881 16.678 19.8265 16.4718 19.4906C16.2657 19.1546 16.0518 18.7575 15.8304 18.2994L15.6471 17.9671C15.5326 17.7533 15.3761 17.4421 15.1776 17.0336C14.9789 16.625 14.8033 16.2298 14.6506 15.8479C14.5896 15.6876 14.4979 15.5655 14.3758 15.4815L14.3185 15.447C14.2803 15.4165 14.2192 15.3842 14.1352 15.3497C14.0512 15.3152 13.9635 15.2905 13.8718 15.2753L10.7332 15.2981C10.4125 15.2981 10.1949 15.3707 10.0803 15.5158L10.0345 15.5845C10.0116 15.6227 10 15.6838 10 15.7678C10 15.8518 10.0229 15.9549 10.0688 16.077C10.5269 17.1538 11.0252 18.1923 11.5635 19.1927C12.1018 20.193 12.5696 20.9988 12.9666 21.6094C13.3637 22.2204 13.7684 22.797 14.1808 23.339C14.5932 23.8812 14.8662 24.2287 14.9997 24.3814C15.1334 24.5343 15.2385 24.6487 15.3148 24.725L15.6012 24.9999C15.7845 25.1832 16.0536 25.4027 16.4087 25.6585C16.7639 25.9144 17.1571 26.1663 17.5886 26.4147C18.0201 26.6627 18.5221 26.8651 19.0949 27.0216C19.6676 27.1782 20.225 27.2411 20.7673 27.2108H22.0846C22.3517 27.1877 22.5541 27.1037 22.6917 26.9587L22.7373 26.9013C22.7679 26.8557 22.7966 26.7849 22.8231 26.6896C22.8499 26.5942 22.8632 26.489 22.8632 26.3746C22.8554 26.0463 22.8804 25.7505 22.9375 25.487C22.9946 25.2237 23.0597 25.0251 23.1324 24.8914C23.2052 24.7578 23.2873 24.6451 23.3786 24.5537C23.4702 24.4621 23.5354 24.4066 23.5737 24.3875C23.6117 24.3683 23.6421 24.3553 23.665 24.3474C23.8483 24.2864 24.0639 24.3455 24.3124 24.5251C24.5606 24.7046 24.7934 24.9262 25.0112 25.1895C25.2288 25.4531 25.4903 25.7488 25.7957 26.0771C26.1013 26.4055 26.3685 26.6497 26.5975 26.8103L26.8265 26.9477C26.9795 27.0394 27.178 27.1234 27.4224 27.1998C27.6664 27.2761 27.8801 27.2952 28.0637 27.257L30.9959 27.2113C31.2859 27.2113 31.5116 27.1633 31.6717 27.068C31.8321 26.9726 31.9274 26.8674 31.9581 26.753C31.9888 26.6385 31.9904 26.5086 31.9639 26.3634C31.9368 26.2185 31.91 26.1172 31.8834 26.0599Z" fill="#BFBCB5"/>
</g>
<path d="M21 41C9.94737 41 1 32.0761 1 21.0525C1 9.92388 9.94737 1 21 1C32.0526 1 41 9.92389 41 20.9475C41 31.9711 32.0526 41 21 41Z" stroke="#BFBCB5" stroke-width="1.5" stroke-miterlimit="10"/>
<defs>
<clipPath id="clip0_78_80">
<rect width="22" height="22" fill="white" transform="translate(10 10)"/>
</clipPath>
</defs>
</svg>
